<svg id="Layer_1" xmlns="http://www.w3.org/2000/svg" xmlns:xlink="http://www.w3.org/1999/xlink" width="400" height="285" viewBox="0 0 400 285" enable-background="new 0 0 400 285"><g opacity=".3"><path fill="none" stroke="#626262" stroke-width="2" stroke-miterlimit="10" d="M398 281v3h-2"/><path fill="none" stroke="#626262" stroke-width="2" stroke-miterlimit="10" stroke-dasharray="5,2" d="M394 284H5z"/><path fill="none" stroke="#626262" stroke-width="2" stroke-miterlimit="10" d="M4 284H1v-3"/><path fill="none" stroke="#626262" stroke-width="2" stroke-miterlimit="10" stroke-dasharray="5,2" d="M1 279V4z"/><path fill="none" stroke="#626262" stroke-width="2" stroke-miterlimit="10" d="M1 3V1H4"/><path fill="none" stroke="#626262" stroke-width="2" stroke-miterlimit="10" stroke-dasharray="5,2" d="M6 1H395z"/><path fill="none" stroke="#626262" stroke-width="2" stroke-miterlimit="10" d="M396 1h2V3"/><path fill="none" stroke="#626262" stroke-width="2" stroke-miterlimit="10" stroke-dasharray="5,2" d="M398 5V280z"/></g><path fill="#f0f0f0" d="M275 194c0 1.104-.896 2-2 2H128c-1.104.0-2-.896-2-2v-94c0-1.104.896-2 2-2h145c1.104.0 2 .896 2 2v94z"/><path fill="#e6e6e6" d="M137 148h43v4H137z"/><path fill="#e6e6e6" d="M137 157h61v4H137z"/><path fill="#e6e6e6" d="M137 105h61v4H137z"/><path fill="#e6e6e6" d="M193 135c0 1.104-.896 2-2 2h-52c-1.104.0-2-.896-2-2v-12c0-1.104.896-2 2-2h52c1.104.0 2 .896 2 2v12z"/><path fill="#e6e6e6" d="M254 135c0 1.104-.896 2-2 2h-52c-1.104.0-2-.896-2-2v-12c0-1.104.896-2 2-2h52c1.104.0 2 .896 2 2v12z"/><path fill="#2c2c2c" d="M225 186c0 1.104-.896 2-2 2h-33c-1.104.0-2-.896-2-2v-14c0-1.104.896-2 2-2h33c1.104.0 2 .896 2 2v14z"/><path fill="#00cfbc" d="M265 186c0 1.104-.896 2-2 2h-33c-1.104.0-2-.896-2-2v-14c0-1.104.896-2 2-2h33c1.104.0 2 .896 2 2v14z"/></svg>