<svg id="Layer_1" xmlns="http://www.w3.org/2000/svg" xmlns:xlink="http://www.w3.org/1999/xlink" width="400" height="285" viewBox="0 0 400 285" enable-background="new 0 0 400 285"><g opacity=".3"><path fill="none" stroke="#626262" stroke-width="2" stroke-miterlimit="10" d="M398 281v3h-2"/><path fill="none" stroke="#626262" stroke-width="2" stroke-miterlimit="10" stroke-dasharray="5,2" d="M394 284H5z"/><path fill="none" stroke="#626262" stroke-width="2" stroke-miterlimit="10" d="M4 284H1v-3"/><path fill="none" stroke="#626262" stroke-width="2" stroke-miterlimit="10" stroke-dasharray="5,2" d="M1 279V4z"/><path fill="none" stroke="#626262" stroke-width="2" stroke-miterlimit="10" d="M1 3V1H4"/><path fill="none" stroke="#626262" stroke-width="2" stroke-miterlimit="10" stroke-dasharray="5,2" d="M6 1H395z"/><path fill="none" stroke="#626262" stroke-width="2" stroke-miterlimit="10" d="M396 1h2V3"/><path fill="none" stroke="#626262" stroke-width="2" stroke-miterlimit="10" stroke-dasharray="5,2" d="M398 5V280z"/></g><path fill="#f0f0f0" d="M297 1.719h99.75v281.25H297z"/><path fill="#e6e6e6" d="M313 106.031h69v4H313z"/><path fill="#e6e6e6" d="M326 125.031h43v4H326z"/><path fill="#e6e6e6" d="M317 115.031h61v4H317z"/><path fill="#00cfbc" d="M380 154.906c0 1.657-1.343 3-3 3h-58c-1.657.0-3-1.343-3-3v-9.999c0-1.657 1.343-3 3-3h58c1.657.0 3 1.343 3 3V154.906z"/><path fill="#2c2c2c" d="M380 175.656c0 1.657-1.343 3-3 3h-58c-1.657.0-3-1.343-3-3v-9.999c0-1.657 1.343-3 3-3h58c1.657.0 3 1.343 3 3V175.656z"/></svg>