<?xml version="1.0" encoding="iso-8859-1"?>
<!DOCTYPE svg PUBLIC "-//W3C//DTD SVG 1.1//EN" "http://www.w3.org/Graphics/SVG/1.1/DTD/svg11.dtd">
<svg 
 version="1.1" xmlns="http://www.w3.org/2000/svg" xmlns:xlink="http://www.w3.org/1999/xlink" x="0px" y="0px" width="512px"
	 height="512px" viewBox="0 0 512 512" style="enable-background:new 0 0 512 512;" xml:space="preserve"
><g id="afcae5a789ccd549f9c6e2a2f80e8438"><g></g><path style="display: inline;" d="M256,0.5C114.893,0.5,0.5,114.893,0.5,256S114.893,511.5,256,511.5S511.5,397.107,511.5,256
		S397.107,0.5,256,0.5z M234.708,104.725c0-15.611,9.582-28.386,21.292-28.386c11.711,0,21.292,12.775,21.292,28.386v113.557
		c0,15.615-9.581,28.39-21.292,28.39c-11.71,0-21.292-12.775-21.292-28.39V104.725z M256,435.661
		c-94.065,0-170.333-76.26-170.333-170.333c0-74.155,47.407-137.215,113.561-160.603v46.209
		c-42.025,20.942-70.978,64.341-70.978,114.394c0,70.437,57.305,127.749,127.75,127.749c70.446,0,127.75-57.313,127.75-127.749
		c0-50.053-28.951-93.451-70.969-114.394v-46.209c66.146,23.388,113.553,86.448,113.553,160.603
		C426.334,359.401,350.074,435.661,256,435.661z"></path></g></svg>