<?xml version="1.0" encoding="UTF-8" standalone="no"?>
<svg width="60px" height="60px" viewBox="0 0 60 60" version="1.1" xmlns="http://www.w3.org/2000/svg" xmlns:xlink="http://www.w3.org/1999/xlink" xmlns:sketch="http://www.bohemiancoding.com/sketch/ns">
    <!-- Generator: Sketch 3.2.2 (9983) - http://www.bohemiancoding.com/sketch -->
    <title>Newsletter</title>
    <desc>Created with Sketch.</desc>
    <defs></defs>
    <g id="stroked" stroke="none" stroke-width="1" fill="none" fill-rule="evenodd" sketch:type="MSPage">
        <g id="Tech" sketch:type="MSLayerGroup" transform="translate(-118.000000, -1809.000000)" stroke="#535353" stroke-width="2" stroke-linejoin="round">
            <g id="Newsletter" transform="translate(125.000000, 1817.000000)" sketch:type="MSShapeGroup">
                <path d="M32,39 C32,42.3137085 34.6862915,45 38,45 C41.3137085,45 44,42.3137085 44,39" id="Oval-593" stroke-linecap="round"></path>
                <path d="M44,39 L44,4.98529732" id="Line" stroke-linecap="square"></path>
                <path d="M32,39 L32,4.98529732" id="Line" stroke-linecap="square"></path>
                <path d="M29,46 L9.41231246,46 C4.21403583,46 0,41.7753929 0,36.580212 L0,2.0061411 C0,0.898179965 0.899784928,0 2.00228533,0 L33,0" id="Rectangle-636" stroke-linecap="round"></path>
                <path d="M40,39 L40,5" id="Line" stroke-linecap="round"></path>
                <path d="M36,39 L36,5" id="Line-192" stroke-linecap="round"></path>
                <rect id="Rectangle-636" stroke-linecap="round" x="5" y="6" width="11" height="14"></rect>
                <rect id="Rectangle-636" stroke-linecap="round" x="18" y="23" width="11" height="14"></rect>
                <path d="M19,7 L28,7" id="Line" stroke-linecap="square"></path>
                <path d="M19,13 L28,13" id="Line" stroke-linecap="square"></path>
                <path d="M19,19 L28,19" id="Line" stroke-linecap="square"></path>
                <path d="M6,24 L15,24" id="Line-195" stroke-linecap="square"></path>
                <path d="M6,30 L15,30" id="Line-193" stroke-linecap="square"></path>
                <path d="M6,36 L15,36" id="Line-194" stroke-linecap="square"></path>
            </g>
        </g>
    </g>
</svg>